HIERARCHY
ROOT Pelvis
{
	OFFSET 0.000000 0.000000 0.000000
	CHANNELS 6 Xposition Yposition Zposition Xrotation Yrotation Zrotation
	JOINT LeftUpLeg_virtual
	{
		OFFSET 0.000000 0.000000 0.000000
		CHANNELS 3 Xrotation Yrotation Zrotation
		JOINT LeftUpLeg
		{
			OFFSET 18.735201 -5.666702 -4.541200
			CHANNELS 3 Xrotation Yrotation Zrotation
			JOINT LeftLeg
			{
				OFFSET -0.021200 -31.938179 0.493100
				CHANNELS 3 Xrotation Yrotation Zrotation
				JOINT LeftFoot
				{
					OFFSET 0.021200 -31.938179 -4.336299
					CHANNELS 3 Xrotation Yrotation Zrotation
					JOINT LeftToeBase
					{
						OFFSET 0.943001 -26.722000 15.023500
						CHANNELS 3 Xrotation Yrotation Zrotation
						End Site
						{
							OFFSET 0 0 0
						}
					}
				}
			}
		}
	}
	JOINT RightUpLeg_virtual
	{
		OFFSET 0.000000 0.000000 0.000000
		CHANNELS 3 Xrotation Yrotation Zrotation
		JOINT RightUpLeg
		{
			OFFSET -18.735201 -5.666702 -4.541200
			CHANNELS 3 Xrotation Yrotation Zrotation
			JOINT RightLeg
			{
				OFFSET 0.018946 -31.938133 0.493100
				CHANNELS 3 Xrotation Yrotation Zrotation
				JOINT RightFoot
				{
					OFFSET -0.018946 -31.938126 -4.336299
					CHANNELS 3 Xrotation Yrotation Zrotation
					JOINT RightToeBase
					{
						OFFSET -0.943001 -26.722004 15.023500
						CHANNELS 3 Xrotation Yrotation Zrotation
						End Site
						{
							OFFSET 0 0 0
						}
					}
				}
			}
		}
	}
	JOINT Hips_virtual
	{
		OFFSET 0.000000 0.000000 0.000000
		CHANNELS 3 Xrotation Yrotation Zrotation
		JOINT Hips
		{
			OFFSET -0.000000 -0.000000 -0.000000
			CHANNELS 3 Xrotation Yrotation Zrotation
			JOINT Spine
			{
				OFFSET 0.000000 10.199997 -0.299500
				CHANNELS 3 Xrotation Yrotation Zrotation
				JOINT Spine1
				{
					OFFSET 0.000000 11.900002 -1.516600
					CHANNELS 3 Xrotation Yrotation Zrotation
					JOINT Spine2
					{
						OFFSET 0.000000 13.600006 -2.842500
						CHANNELS 3 Xrotation Yrotation Zrotation
						JOINT Neck_virtual
						{
							OFFSET 0.000000 0.000000 0.000000
							CHANNELS 3 Xrotation Yrotation Zrotation
							JOINT Neck
							{
								OFFSET 0.000000 9.624100 -2.890100
								CHANNELS 3 Xrotation Yrotation Zrotation
								JOINT Head
								{
									OFFSET 0.000000 14.068802 -1.351900
									CHANNELS 3 Xrotation Yrotation Zrotation
									End Site
									{
										OFFSET 0 0 0
									}
								}
							}
						}
						JOINT LeftShoulder_virtual
						{
							OFFSET 0.000000 0.000000 0.000000
							CHANNELS 3 Xrotation Yrotation Zrotation
							JOINT LeftShoulder
							{
								OFFSET 15.263000 10.923401 -0.547700
								CHANNELS 3 Xrotation Yrotation Zrotation
								JOINT LeftArm
								{
									OFFSET 25.438599 -2.830597 -13.032500
									CHANNELS 3 Xrotation Yrotation Zrotation
									JOINT LeftForeArm
									{
										OFFSET 29.960503 0.000000 0.000000
										CHANNELS 3 Xrotation Yrotation Zrotation
										JOINT LeftHand
										{
											OFFSET 27.849251 0.000000 0.000000
											CHANNELS 3 Xrotation Yrotation Zrotation
											End Site
											{
												OFFSET 0 0 0
											}
										}
									}
								}
							}
						}
						JOINT RightShoulder_virtual
						{
							OFFSET 0.000000 0.000000 0.000000
							CHANNELS 3 Xrotation Yrotation Zrotation
							JOINT RightShoulder
							{
								OFFSET -15.263000 10.923401 -0.547700
								CHANNELS 3 Xrotation Yrotation Zrotation
								JOINT RightArm
								{
									OFFSET -25.438599 -2.830597 -13.032500
									CHANNELS 3 Xrotation Yrotation Zrotation
									JOINT RightForeArm
									{
										OFFSET -29.960503 0.000000 0.000000
										CHANNELS 3 Xrotation Yrotation Zrotation
										JOINT RightHand
										{
											OFFSET -27.849251 0.000000 0.000000
											CHANNELS 3 Xrotation Yrotation Zrotation
											End Site
											{
												OFFSET 0 0 0
											}
										}
									}
								}
							}
						}
					}
				}
			}
		}
	}
}
MOTION
Frames: 9
Frame Time: 0.03333333
-2.153384 80.913765 9.505936 0.000000 0.000000 0.000000 2.626159 -71.660528 5.071331 -34.357115 6.265985 29.669765 40.898063 -16.156109 4.687725 -11.398412 -2.769723 -30.131380 0.000000 0.000000 0.000000 1.861453 -71.009775 4.793286 -20.343783 -5.125562 -41.788767 38.800662 -11.668757 -1.419399 -25.164736 7.264276 27.830571 0.000000 0.000000 0.000000 4.308653 -70.174579 6.890087 -0.812601 0.042008 -0.087460 16.640958 1.762756 -9.631697 3.310204 -1.403388 -2.510687 0.000000 0.000000 0.000000 1.188523 -1.502589 -2.131813 1.619819 -2.095918 -0.582553 0.000000 0.000000 0.000000 1.621147 -1.833452 -1.712620 4.692203 -8.554416 -10.172257 -29.865794 32.433146 -34.327404 30.827898 -60.062361 23.758907 0.000000 0.000000 0.000000 0.492310 -1.316475 -2.291846 9.757865 16.748766 7.318053 -1.040538 -2.947521 55.327879 9.859239 28.943883 -9.199034 0.000000 0.000000 0.000000 
-2.325567 81.435738 10.568043 0.000000 0.000000 0.000000 2.820237 -71.670664 5.093889 -34.221065 6.431630 29.329280 40.524527 -15.823769 4.112238 -12.331377 -1.838209 -29.824079 0.000000 0.000000 0.000000 2.276774 -70.984592 5.011834 -21.001700 -4.986855 -41.982728 40.096345 -11.197284 -1.363335 -21.744925 8.634141 28.347546 0.000000 0.000000 0.000000 4.126002 -70.440923 6.605452 -0.823972 0.034955 -0.079709 16.474514 1.579846 -9.374311 3.169154 -1.507345 -2.349124 0.000000 0.000000 0.000000 1.218089 -1.579538 -2.049273 1.550574 -2.095470 -0.528054 0.000000 0.000000 0.000000 1.529555 -1.888735 -1.710932 4.705125 -8.794826 -10.010180 -31.026677 32.217545 -33.753921 30.615438 -59.819159 23.953817 0.000000 0.000000 0.000000 0.088568 -1.410272 -2.269394 9.947647 16.944607 7.187709 -2.344458 -2.815848 54.550832 9.583139 27.802679 -8.780940 0.000000 0.000000 0.000000 
-2.692517 82.205284 12.163898 0.000000 0.000000 0.000000 3.632989 -71.702137 5.452439 -34.364454 7.071528 28.748717 41.029967 -15.075447 3.378713 -13.433865 -0.458918 -28.172468 0.000000 0.000000 0.000000 3.169673 -70.880042 5.497165 -21.897822 -4.404854 -41.013667 42.488329 -11.356403 -1.508419 -18.770584 9.179976 25.829014 0.000000 0.000000 0.000000 4.187784 -70.711268 6.341291 -0.831664 0.048902 -0.065606 16.138067 1.194623 -8.938702 2.996604 -1.785219 -2.057681 0.000000 0.000000 0.000000 1.106985 -1.785614 -1.789635 1.499937 -1.984288 -0.543974 0.000000 0.000000 0.000000 1.306867 -2.096565 -1.575663 4.476152 -9.093850 -10.242801 -32.425749 31.474424 -32.912359 29.522615 -58.824512 23.480739 0.000000 0.000000 0.000000 -0.554107 -1.643378 -2.095290 10.146005 17.127288 7.502976 -4.353890 -2.949748 53.782935 9.325329 26.269328 -8.230109 0.000000 0.000000 0.000000 
-3.235267 82.985970 13.991447 0.000000 0.000000 0.000000 4.945745 -71.711276 6.123870 -34.962864 8.030802 28.147204 42.594310 -14.096072 2.636400 -14.527689 1.116455 -25.474469 0.000000 0.000000 0.000000 4.457881 -70.635399 6.172310 -22.902285 -3.920926 -38.867844 45.014112 -12.000674 -1.503706 -17.951180 8.558877 21.766285 0.000000 0.000000 0.000000 4.557446 -70.900000 6.180154 -0.827051 0.064395 -0.055830 15.775311 0.647073 -8.403141 2.798479 -2.164950 -1.704862 0.000000 0.000000 0.000000 0.879941 -2.058880 -1.436055 1.452222 -1.771354 -0.613589 0.000000 0.000000 0.000000 1.004615 -2.407407 -1.362269 4.034519 -9.403556 -10.805309 -33.635646 30.136997 -31.897817 28.002172 -57.262073 22.631263 0.000000 0.000000 0.000000 -1.313764 -1.962540 -1.821547 10.330662 17.244261 8.190742 -6.314588 -3.372867 53.090896 9.197279 25.103824 -7.675146 0.000000 0.000000 0.000000 
-3.872846 83.567757 15.834473 0.000000 0.000000 0.000000 6.474161 -71.647557 6.957236 -36.181138 9.165800 27.828463 45.135625 -13.122773 1.926397 -15.424165 2.659180 -22.251597 0.000000 0.000000 0.000000 5.963854 -70.291300 6.955935 -24.066076 -3.894228 -36.030382 47.489240 -12.669816 -0.985527 -19.691750 7.357481 18.371817 0.000000 0.000000 0.000000 5.307107 -70.945714 6.274044 -0.817947 0.064855 -0.043207 15.458533 0.004529 -7.816782 2.589819 -2.599174 -1.363094 0.000000 0.000000 0.000000 0.572731 -2.334777 -1.083634 1.360224 -1.499105 -0.707968 0.000000 0.000000 0.000000 0.689691 -2.747395 -1.153143 3.445002 -9.750939 -11.550996 -34.415387 28.257567 -30.758323 26.537708 -55.487043 21.794358 0.000000 0.000000 0.000000 -2.049775 -2.292196 -1.528530 10.504603 17.224574 9.054420 -7.789760 -4.086649 52.387578 9.188832 24.927704 -7.165546 0.000000 0.000000 0.000000 
-4.617047 83.823051 17.448606 0.000000 0.000000 0.000000 8.051156 -71.360669 7.870728 -38.047808 10.229472 27.951105 48.285473 -12.350910 1.276902 -16.298621 4.054231 -19.005227 0.000000 0.000000 0.000000 7.578047 -69.829682 7.814965 -25.596305 -4.288444 -33.178532 49.741570 -12.998454 0.113835 -22.799076 6.163531 16.567472 0.000000 0.000000 0.000000 6.549748 -70.790246 6.821724 -0.813176 0.072881 -0.031881 15.278317 -0.605126 -7.263743 2.363947 -2.985795 -1.111716 0.000000 0.000000 0.000000 0.238784 -2.539876 -0.827180 1.180481 -1.193266 -0.789481 0.000000 0.000000 0.000000 0.390295 -3.038047 -1.013334 2.803903 -10.102717 -12.252059 -34.656090 25.855883 -29.535025 25.481073 -53.871222 21.238226 0.000000 0.000000 0.000000 -2.616275 -2.524331 -1.312772 10.661011 17.070408 9.907392 -8.534312 -5.041557 51.619226 9.315502 25.881212 -6.743752 0.000000 0.000000 0.000000 
-5.425258 83.703331 18.690596 0.000000 0.000000 0.000000 9.723544 -70.786865 8.942862 -40.437445 10.905620 28.406714 51.729906 -11.938160 0.730294 -17.492376 5.152929 -16.135244 0.000000 0.000000 0.000000 9.376473 -69.294216 8.866493 -27.428266 -4.888219 -30.790452 51.899326 -12.998646 1.497199 -26.312233 5.149733 15.434850 0.000000 0.000000 0.000000 8.367389 -70.349644 7.960790 -0.813917 0.072201 -0.017601 15.187967 -1.060130 -6.802791 2.121765 -3.225144 -1.020524 0.000000 0.000000 0.000000 -0.152990 -2.622304 -0.735936 0.909873 -0.876519 -0.841597 0.000000 0.000000 0.000000 0.182582 -3.209910 -0.987503 2.224328 -10.470619 -12.672939 -34.634636 22.972901 -28.202300 24.858994 -52.532361 20.951199 0.000000 0.000000 0.000000 -2.922702 -2.599507 -1.230566 10.852074 16.903115 10.671418 -8.683067 -6.172279 50.900178 9.532570 27.635167 -6.417241 0.000000 0.000000 0.000000 
-6.265575 83.208511 19.421064 0.000000 0.000000 0.000000 11.635264 -69.974810 10.293038 -43.202473 10.926558 29.083803 55.236396 -11.879397 0.258174 -18.973982 5.920160 -13.776897 0.000000 0.000000 0.000000 11.395741 -68.636967 10.244487 -29.627837 -5.507976 -29.188291 55.011098 -12.858920 3.102812 -30.293774 4.209595 13.869622 0.000000 0.000000 0.000000 10.814969 -69.609081 9.766668 -0.819259 0.067734 -0.013334 15.171097 -1.260259 -6.429616 1.885315 -3.286139 -1.115966 0.000000 0.000000 0.000000 -0.560644 -2.586178 -0.841833 0.563974 -0.570774 -0.863708 0.000000 0.000000 0.000000 0.083905 -3.244881 -1.096856 1.782680 -10.883626 -12.726090 -34.736249 19.751285 -26.873173 24.490719 -51.339236 20.763420 0.000000 0.000000 0.000000 -2.993210 -2.504785 -1.288403 11.076829 16.846262 11.374049 -8.609196 -7.359970 50.270616 9.789097 29.732315 -6.194724 0.000000 0.000000 0.000000 
-7.055042 82.392555 19.466822 0.000000 0.000000 0.000000 13.942283 -68.965725 11.996518 -46.290067 10.258276 29.888314 58.744968 -12.130728 -0.232785 -20.789404 6.315180 -11.974144 0.000000 0.000000 0.000000 13.679820 -67.720608 11.983409 -32.340669 -5.791317 -28.283045 59.402504 -12.518110 4.826560 -34.207042 3.631072 11.595274 0.000000 0.000000 0.000000 13.740823 -68.549923 12.041956 -0.820852 0.065710 -0.021714 15.171080 -1.216803 -6.119534 1.659542 -3.193700 -1.369275 0.000000 0.000000 0.000000 -0.938768 -2.458837 -1.124914 0.200039 -0.280744 -0.859652 0.000000 0.000000 0.000000 0.044650 -3.166313 -1.320856 1.525346 -11.349872 -12.408218 -35.345577 16.374236 -25.564452 24.196876 -50.061988 20.501467 0.000000 0.000000 0.000000 -2.889513 -2.272847 -1.470104 11.318503 16.990954 12.045312 -8.733281 -8.436974 49.619924 10.130902 31.755660 -6.138742 0.000000 0.000000 0.000000 
